<svg width="512" height="512" viewBox="0 0 512 512" fill="none" xmlns="http://www.w3.org/2000/svg">
<g clip-path="url(#clip0)">
<path d="M30.32 509.68C31.8189 511.17 33.8465 512.006 35.96 512.006C38.0735 512.006 40.1011 511.17 41.6 509.68L209.6 341.68L377.6 509.68C379.099 511.17 381.127 512.006 383.24 512.006C385.353 512.006 387.381 511.17 388.88 509.68L416.88 481.68C418.37 480.181 419.206 478.153 419.206 476.04C419.206 473.927 418.37 471.899 416.88 470.4L248.88 302.4L368 184C368.982 182.973 369.672 181.703 370 180.32C377.911 180.32 385.645 177.974 392.223 173.579C398.801 169.184 403.928 162.936 406.955 155.627C409.983 148.318 410.775 140.276 409.231 132.516C407.688 124.757 403.878 117.63 398.284 112.036C392.69 106.442 385.563 102.632 377.804 101.089C370.044 99.5452 362.002 100.337 354.693 103.365C347.384 106.392 341.136 111.519 336.741 118.097C332.346 124.675 330 132.409 330 140.32V143.36C329.308 143.485 328.636 143.7 328 144L269.04 203.04C267.729 204.57 267.045 206.539 267.122 208.552C267.2 210.566 268.035 212.476 269.46 213.901C270.884 215.325 272.794 216.16 274.808 216.238C276.821 216.315 278.79 215.631 280.32 214.32L333.68 160.96L350.4 177.68L232.4 296L204.56 323.84L36.56 491.84L19.28 476L187.28 308L216 280L246.96 249.04C248.271 247.51 248.955 245.541 248.878 243.528C248.8 241.514 247.965 239.604 246.54 238.179C245.116 236.755 243.206 235.92 241.192 235.842C239.179 235.765 237.21 236.449 235.68 237.76L210.32 263.12L166.96 219.76C165.43 218.449 163.461 217.765 161.448 217.842C159.434 217.92 157.524 218.755 156.099 220.179C154.675 221.604 153.84 223.514 153.762 225.528C153.685 227.541 154.369 229.51 155.68 231.04L199.04 274.4L182.32 291.12L69.28 178L86 161.28L122.32 197.6C123.85 198.911 125.819 199.595 127.832 199.518C129.846 199.44 131.756 198.605 133.18 197.181C134.605 195.756 135.44 193.846 135.518 191.832C135.595 189.819 134.911 187.85 133.6 186.32L91.68 144C90.586 142.98 89.2279 142.287 87.76 142C87.76 141.2 87.76 140.48 87.76 139.68C87.76 131.769 85.414 124.035 81.0188 117.457C76.6235 110.879 70.3764 105.752 63.0673 102.725C55.7583 99.6973 47.7156 98.9052 39.9564 100.449C32.1971 101.992 25.0698 105.802 19.4757 111.396C13.8816 116.99 10.072 124.117 8.52858 131.876C6.98517 139.636 7.7773 147.678 10.8048 154.987C13.8323 162.296 18.9592 168.544 25.5372 172.939C32.1151 177.334 39.8487 179.68 47.76 179.68H50.08C50.3671 181.148 51.06 182.506 52.08 183.6L170.72 302L2.71999 470C1.22998 471.499 0.393646 473.527 0.393646 475.64C0.393646 477.753 1.22998 479.781 2.71999 481.28L30.32 509.68ZM370 116C374.747 116 379.387 117.408 383.334 120.045C387.28 122.682 390.357 126.43 392.173 130.816C393.99 135.201 394.465 140.027 393.539 144.682C392.613 149.338 390.327 153.614 386.971 156.971C383.614 160.327 379.338 162.613 374.682 163.539C370.027 164.465 365.201 163.99 360.816 162.173C356.43 160.357 352.682 157.28 350.045 153.334C347.408 149.387 346 144.747 346 140C346 133.635 348.529 127.53 353.029 123.029C357.53 118.529 363.635 116 370 116ZM400.72 476L384 492.72L221.28 330L238 313.28L400.72 476ZM24 140C24 135.253 25.4076 130.613 28.0447 126.666C30.6819 122.72 34.4302 119.643 38.8156 117.827C43.201 116.01 48.0266 115.535 52.6822 116.461C57.3377 117.387 61.6141 119.673 64.9706 123.029C68.327 126.386 70.6128 130.662 71.5388 135.318C72.4649 139.973 71.9896 144.799 70.1731 149.184C68.3566 153.57 65.2805 157.318 61.3337 159.955C57.3869 162.592 52.7467 164 48 164C41.6348 164 35.5303 161.471 31.0294 156.971C26.5286 152.47 24 146.365 24 140Z" fill="#AF1E2C"/>
<path d="M266.64 125.04C267.76 127.76 278.16 152 292.48 159.12C294.369 159.988 296.522 160.086 298.483 159.394C300.443 158.702 302.057 157.274 302.983 155.412C303.908 153.55 304.073 151.401 303.441 149.421C302.81 147.44 301.432 145.783 299.6 144.8C294.792 141.626 290.815 137.346 288 132.32C293.511 132.77 299.049 132.77 304.56 132.32C305.924 132.151 307.222 131.632 308.328 130.815C309.433 129.999 310.31 128.91 310.873 127.656C311.435 126.402 311.666 125.024 311.541 123.655C311.416 122.286 310.94 120.972 310.16 119.84C304.415 111.378 300.967 101.569 300.154 91.3732C299.34 81.1777 301.189 70.9458 305.52 61.68L329.52 85.68C330.549 87.1513 332.044 88.2336 333.763 88.7526C335.481 89.2717 337.325 89.1974 338.997 88.5417C340.668 87.886 342.071 86.687 342.978 85.1377C343.886 83.5883 344.246 81.7787 344 80C344 79.44 344 28.96 422.4 16.72C429.52 27.28 447.68 61.36 424.8 108.64C424.121 110.058 423.875 111.644 424.092 113.201C424.309 114.758 424.98 116.216 426.022 117.394C427.063 118.572 428.428 119.417 429.946 119.823C431.465 120.23 433.07 120.18 434.56 119.68L459.44 111.68C457.44 130.72 448.8 169.04 412.8 185.04C410.859 185.899 409.338 187.495 408.573 189.475C407.808 191.455 407.861 193.659 408.72 195.6C409.579 197.541 411.175 199.062 413.155 199.827C415.135 200.592 417.339 200.539 419.28 199.68C477.52 173.76 476.08 103.12 476 100.16C475.966 98.9083 475.638 97.6822 475.044 96.5802C474.449 95.4782 473.605 94.5311 472.577 93.8151C471.55 93.0992 470.369 92.6344 469.13 92.458C467.89 92.2817 466.626 92.3989 465.44 92.8L445.92 99.28C451.903 83.3257 453.764 66.1198 451.331 49.2552C448.898 32.3906 442.249 16.4124 432 2.79999C431.149 1.78788 430.061 1.00239 428.833 0.513765C427.604 0.0251412 426.273 -0.151378 424.96 -5.1707e-06C375.2 6.63999 351.52 27.6 340.4 44C336.314 50.0378 333.134 56.6411 330.96 63.6L309.68 42.32C308.85 41.4913 307.848 40.8551 306.746 40.4566C305.643 40.058 304.466 39.9068 303.298 40.0137C302.13 40.1206 301 40.4829 299.988 41.075C298.975 41.667 298.106 42.4745 297.44 43.44C290.501 54.1491 286.259 66.3789 285.074 79.0844C283.89 91.7898 285.8 104.593 290.64 116.4C285.775 116.271 280.942 115.572 276.24 114.32C274.787 113.898 273.245 113.896 271.791 114.315C270.338 114.734 269.033 115.557 268.028 116.687C267.023 117.818 266.359 119.21 266.114 120.703C265.868 122.195 266.05 123.727 266.64 125.12V125.04Z" fill="#AF1E2C"/>
<path d="M388.56 194.08C388.56 194.08 385.2 196.64 378.48 194.08C377.482 193.749 376.429 193.618 375.38 193.694C374.331 193.77 373.308 194.052 372.368 194.524C371.428 194.996 370.591 195.648 369.903 196.443C369.215 197.239 368.691 198.162 368.36 199.16C368.029 200.158 367.898 201.212 367.974 202.26C368.05 203.309 368.332 204.332 368.804 205.272C369.276 206.212 369.928 207.049 370.723 207.737C371.519 208.425 372.442 208.949 373.44 209.28C376.811 210.457 380.35 211.078 383.92 211.12C389.8 211.361 395.542 209.294 399.92 205.36C400.682 204.615 401.287 203.725 401.701 202.743C402.114 201.761 402.327 200.706 402.327 199.64C402.327 198.574 402.114 197.519 401.701 196.537C401.287 195.555 400.682 194.665 399.92 193.92C399.166 193.181 398.273 192.598 397.292 192.205C396.311 191.813 395.263 191.618 394.207 191.633C393.151 191.648 392.108 191.872 391.139 192.292C390.169 192.712 389.293 193.32 388.56 194.08Z" fill="#AF1E2C"/>
</g>
<defs>
<clipPath id="clip0">
<rect width="512" height="512" fill="white"/>
</clipPath>
</defs>
</svg>
